<?xml version="1.0" encoding="iso-8859-1"?>
<!-- Generator: Adobe Illustrator 16.0.0, SVG Export Plug-In . SVG Version: 6.00 Build 0)  -->
<!DOCTYPE svg PUBLIC "-//W3C//DTD SVG 1.1//EN" "http://www.w3.org/Graphics/SVG/1.1/DTD/svg11.dtd">
<svg version="1.1" id="Capa_1" xmlns="http://www.w3.org/2000/svg" xmlns:xlink="http://www.w3.org/1999/xlink" x="0px" y="0px"
	 width="488.501px" height="488.5px" viewBox="0 0 488.501 488.5" style="enable-background:new 0 0 488.501 488.5;"
	 xml:space="preserve">
<g>
	<path d="M487.312,159.162C479.501,99.042,432.172,51.138,372.2,42.651c-6.532-0.929-13.158-1.395-19.69-1.395
		c-43.417,0-83.353,20.523-108.664,54.18c-25.362-33.038-65.015-53.168-107.866-53.168c-6.626,0-13.358,0.482-19.994,1.437
		C58.812,51.915,11.987,97.287,2.111,154.046c-7.496,43.113,5.169,85.801,34.788,117.292c3.901,4.676,9.132,10.621,13.882,15.994
		l4.058,4.619c29.976,34.18,93.586,95.86,137.779,135.619c13.798,12.435,32.765,19.674,52.036,19.674h0.546
		c19.921-0.467,38.991-7.476,52.339-19.947c37.189-34.693,61.598-59.484,102.257-101.827l1.552-1.625
		c45.996-47.485,53.818-57.042,56.387-60.507C481.734,234.053,492.24,197.084,487.312,159.162z M415.922,229.792
		c-12.265,15.056-8.984,11.245-53.053,56.738l-1.73,1.781c-39.946,41.584-63.883,65.75-100.17,99.601
		c-3.586,3.35-11.607,5.315-16.251,5.315c-6.103,0-12.173-2.061-16.21-5.698c-42.096-37.886-105.078-98.697-133.365-130.964
		l-4.162-4.696c-4.613-5.228-10.889-12.692-14.637-16.817c-17.771-19.563-26.055-45.31-21.431-71.821
		c5.944-34.19,34.2-61.529,68.695-66.483c4.121-0.586,8.272-0.886,12.372-0.886c32.764,0,62.405,19.407,75.531,49.43
		c5.672,12.991,18.421,21.374,32.523,21.374c14.217,0,27.03-8.494,32.649-21.662c14.542-34.165,50.526-54.542,88.01-49.293
		c35.616,5.048,64.826,34.625,69.472,70.341C437.184,189.346,430.537,211.85,415.922,229.792z"/>
</g>
<g>
</g>
<g>
</g>
<g>
</g>
<g>
</g>
<g>
</g>
<g>
</g>
<g>
</g>
<g>
</g>
<g>
</g>
<g>
</g>
<g>
</g>
<g>
</g>
<g>
</g>
<g>
</g>
<g>
</g>
</svg>
