<svg width="147" height="63" viewBox="0 0 147 63" fill="none" xmlns="http://www.w3.org/2000/svg">
<path d="M31.6254 58V43.25H37.1054C38.0987 43.25 39.0087 43.4333 39.8354 43.8C40.6621 44.1667 41.3754 44.68 41.9754 45.34C42.5754 46 43.0387 46.7767 43.3654 47.67C43.6921 48.5633 43.8554 49.5367 43.8554 50.59C43.8554 51.6433 43.6921 52.62 43.3654 53.52C43.0387 54.42 42.5754 55.2067 41.9754 55.88C41.3754 56.5467 40.6621 57.0667 39.8354 57.44C39.0087 57.8133 38.0987 58 37.1054 58H31.6254ZM35.6654 56.82L33.8454 55H36.5654C37.1387 55 37.6654 54.8233 38.1454 54.47C38.6321 54.11 39.0221 53.6 39.3154 52.94C39.6087 52.28 39.7554 51.4967 39.7554 50.59C39.7554 49.6767 39.6087 48.8967 39.3154 48.25C39.0221 47.6033 38.6321 47.11 38.1454 46.77C37.6654 46.4233 37.1387 46.25 36.5654 46.25H33.8454L35.6654 44.43V56.82ZM47.7488 58V43.25H54.2888C55.9688 43.25 57.2088 43.6233 58.0088 44.37C58.8155 45.11 59.2188 46.1433 59.2188 47.47C59.2188 48.2167 59.0755 48.8533 58.7888 49.38C58.5022 49.9067 58.1455 50.3133 57.7188 50.6C57.2922 50.8867 56.8688 51.0467 56.4488 51.08C56.8822 51.1067 57.2855 51.21 57.6588 51.39C58.0322 51.57 58.3322 51.86 58.5588 52.26C58.7922 52.6533 58.9088 53.1867 58.9088 53.86C58.9088 54.2867 58.9088 54.6933 58.9088 55.08C58.9088 55.4667 58.9088 55.8733 58.9088 56.3C58.9088 56.6533 58.9355 56.99 58.9888 57.31C59.0488 57.6233 59.1388 57.8533 59.2588 58H55.2188C55.1122 57.8333 55.0288 57.5967 54.9688 57.29C54.9155 56.9833 54.8888 56.6533 54.8888 56.3C54.8888 55.9333 54.8888 55.6033 54.8888 55.31C54.8888 55.0167 54.8888 54.6867 54.8888 54.32C54.8888 53.7867 54.7755 53.3667 54.5488 53.06C54.3222 52.7467 53.9122 52.59 53.3188 52.59H50.6388L51.6888 51.36V58H47.7488ZM51.6888 51L50.6388 49.59H53.3588C53.6988 49.59 53.9955 49.52 54.2488 49.38C54.5088 49.24 54.7088 49.04 54.8488 48.78C54.9955 48.5133 55.0688 48.2033 55.0688 47.85C55.0688 47.4167 54.9122 47.04 54.5988 46.72C54.2922 46.4 53.8722 46.24 53.3388 46.24H50.5388L51.6888 45.04V51ZM63.0996 58V43.25H67.0796V58H63.0996ZM75.2538 58H71.3238V43.25H77.4838L81.5538 56.79L80.7738 56.95V43.25H84.7038V58H78.4938L74.4238 44.51L75.2538 44.35V58ZM95.7398 51.05L95.8598 47.97L101.76 58H97.3798L93.6798 51.05L95.4098 51.29L92.7198 54.96L93.0398 52.45V58H89.0098V43.25H93.0398V50.61L92.2998 50.31L97.2698 43.25H101.5L95.7398 51.05ZM109.956 58.26C108.863 58.26 107.883 58.0867 107.016 57.74C106.149 57.3867 105.463 56.8633 104.956 56.17C104.456 55.4767 104.206 54.6167 104.206 53.59C104.206 53.5033 104.206 53.4167 104.206 53.33C104.206 53.2433 104.206 53.1567 104.206 53.07H108.236C108.236 53.1433 108.236 53.2167 108.236 53.29C108.236 53.3633 108.236 53.4367 108.236 53.51C108.236 53.9767 108.379 54.3667 108.666 54.68C108.959 54.9933 109.403 55.15 109.996 55.15C110.569 55.15 111.019 55.0667 111.346 54.9C111.679 54.7267 111.846 54.4467 111.846 54.06C111.846 53.7733 111.689 53.5067 111.376 53.26C111.069 53.0133 110.653 52.78 110.126 52.56C109.606 52.34 109.026 52.13 108.386 51.93C107.693 51.71 107.033 51.4133 106.406 51.04C105.786 50.6667 105.279 50.1833 104.886 49.59C104.493 48.99 104.296 48.2467 104.296 47.36C104.296 46.4467 104.549 45.6667 105.056 45.02C105.563 44.3667 106.243 43.8667 107.096 43.52C107.956 43.1733 108.909 43 109.956 43C111.043 43 112.013 43.17 112.866 43.51C113.726 43.85 114.406 44.35 114.906 45.01C115.406 45.67 115.656 46.4867 115.656 47.46C115.656 47.5467 115.656 47.63 115.656 47.71C115.656 47.79 115.656 47.8733 115.656 47.96H111.626C111.626 47.9267 111.626 47.8767 111.626 47.81C111.626 47.7367 111.626 47.6833 111.626 47.65C111.626 47.2167 111.503 46.85 111.256 46.55C111.016 46.25 110.599 46.1 110.006 46.1C109.419 46.1 108.966 46.2067 108.646 46.42C108.333 46.6333 108.176 46.9433 108.176 47.35C108.176 47.6367 108.309 47.89 108.576 48.11C108.843 48.3233 109.209 48.5233 109.676 48.71C110.149 48.8967 110.683 49.0967 111.276 49.31C112.169 49.6233 112.953 49.97 113.626 50.35C114.299 50.7233 114.823 51.1933 115.196 51.76C115.576 52.3267 115.766 53.0533 115.766 53.94C115.766 54.8667 115.516 55.6533 115.016 56.3C114.516 56.94 113.826 57.4267 112.946 57.76C112.073 58.0933 111.076 58.26 109.956 58.26Z" fill="#41197F"/>
<path d="M72.1771 16.355V23.9695H67.6653H67.5627V24.072V26.1229V26.2254H67.6653H78.9449H79.0474V26.1229V24.072V23.9695H78.9449H74.433V16.355L85.6859 4.03044L85.7127 4.00106V3.96129V1V0.897458H85.6102H61H60.8975V1V3.96129V4.00106L60.9243 4.03044L72.1771 16.355ZM63.1783 3.15339H83.4318L80.3422 6.53728H66.268L63.1783 3.15339ZM68.3277 8.79322H78.2824L73.3202 14.228H73.2899L68.3277 8.79322Z" fill="#FCC436" stroke="#FCC436" stroke-width="0.205085"/>
<path d="M73.3051 17.4067L66.2008 8.17793L80.4094 8.17793L73.3051 17.4067Z" fill="#FCC436"/>
</svg>
