<svg width="147" height="65" viewBox="0 0 147 65" fill="none" xmlns="http://www.w3.org/2000/svg">
<path d="M46.3523 45.25H53.1423V60H49.3123V47.4L49.3823 47.44L47.0923 60H41.9523L39.5923 47.41L39.6623 47.37V60H35.8223V45.25H42.6123L44.6723 58.46H44.2623L46.3523 45.25ZM59.7888 48.25L61.6088 46.43V52.18L60.7088 51.1H66.0088V54.1H60.7088L61.6088 53.03V58.82L59.7888 57H67.1188V60H57.5488V45.25H67.1188V48.25H59.7888ZM70.5113 60L73.9413 45.25H80.3513L83.7613 60H79.6313L77.1413 47.66H77.1613L74.6413 60H70.5113ZM73.5113 56.9V53.87H80.7913V56.9H73.5113ZM87.3543 60V45.25H91.3943V58.81L89.5743 56.79H96.6543V60H87.3543ZM105.859 60.26C104.766 60.26 103.786 60.0867 102.919 59.74C102.052 59.3867 101.366 58.8633 100.859 58.17C100.359 57.4767 100.109 56.6167 100.109 55.59C100.109 55.5033 100.109 55.4167 100.109 55.33C100.109 55.2433 100.109 55.1567 100.109 55.07H104.139C104.139 55.1433 104.139 55.2167 104.139 55.29C104.139 55.3633 104.139 55.4367 104.139 55.51C104.139 55.9767 104.282 56.3667 104.569 56.68C104.862 56.9933 105.306 57.15 105.899 57.15C106.472 57.15 106.922 57.0667 107.249 56.9C107.582 56.7267 107.749 56.4467 107.749 56.06C107.749 55.7733 107.592 55.5067 107.279 55.26C106.972 55.0133 106.556 54.78 106.029 54.56C105.509 54.34 104.929 54.13 104.289 53.93C103.596 53.71 102.936 53.4133 102.309 53.04C101.689 52.6667 101.182 52.1833 100.789 51.59C100.396 50.99 100.199 50.2467 100.199 49.36C100.199 48.4467 100.452 47.6667 100.959 47.02C101.466 46.3667 102.146 45.8667 102.999 45.52C103.859 45.1733 104.812 45 105.859 45C106.946 45 107.916 45.17 108.769 45.51C109.629 45.85 110.309 46.35 110.809 47.01C111.309 47.67 111.559 48.4867 111.559 49.46C111.559 49.5467 111.559 49.63 111.559 49.71C111.559 49.79 111.559 49.8733 111.559 49.96H107.529C107.529 49.9267 107.529 49.8767 107.529 49.81C107.529 49.7367 107.529 49.6833 107.529 49.65C107.529 49.2167 107.406 48.85 107.159 48.55C106.919 48.25 106.502 48.1 105.909 48.1C105.322 48.1 104.869 48.2067 104.549 48.42C104.236 48.6333 104.079 48.9433 104.079 49.35C104.079 49.6367 104.212 49.89 104.479 50.11C104.746 50.3233 105.112 50.5233 105.579 50.71C106.052 50.8967 106.586 51.0967 107.179 51.31C108.072 51.6233 108.856 51.97 109.529 52.35C110.202 52.7233 110.726 53.1933 111.099 53.76C111.479 54.3267 111.669 55.0533 111.669 55.94C111.669 56.8667 111.419 57.6533 110.919 58.3C110.419 58.94 109.729 59.4267 108.849 59.76C107.976 60.0933 106.979 60.26 105.859 60.26Z" fill="#41197F"/>
<path d="M93.334 7.90386C93.334 4.04507 90.0094 0.00785174 90.0094 1.21871C90.0094 2.42957 90.6243 18.5108 90.6243 18.5108L90.0094 29.0269C90.0094 29.7441 90.5908 30.3255 91.308 30.3255C92.0252 30.3255 92.6066 29.7441 92.6066 29.0269L92.2631 18.4505C92.2631 18.4505 93.334 11.7627 93.334 7.90386Z" stroke="#FCC436" stroke-width="0.820339" stroke-miterlimit="10"/>
<mask id="path-3-inside-1_23_2582" fill="white">
<path d="M93.334 7.90386C93.334 4.04507 90.0094 0.00785172 90.0094 1.21871C90.0094 2.42957 90.6243 18.5108 90.6243 18.5108L90.0094 29.0269C90.0094 29.7441 90.5908 30.3255 91.308 30.3255C92.0252 30.3255 92.6066 29.7441 92.6066 29.0269L92.2631 18.4505C92.2631 18.4505 93.334 11.7627 93.334 7.90386Z"/>
</mask>
<path d="M90.6243 18.5108L94.719 18.7503L94.7306 18.5523L94.723 18.3541L90.6243 18.5108ZM90.0094 29.0269L85.9147 28.7875L85.9077 28.9071V29.0269H90.0094ZM92.6066 29.0269H96.7082V28.9604L96.7061 28.8938L92.6066 29.0269ZM92.2631 18.4505L88.213 17.8019L88.1508 18.1904L88.1636 18.5836L92.2631 18.4505ZM97.4357 7.90386C97.4357 4.92781 96.2103 2.19614 95.1575 0.498499C94.6399 -0.336273 93.9674 -1.2418 93.206 -1.89779C93 -2.07525 92.6995 -2.31139 92.318 -2.52472C92.0018 -2.7015 91.2572 -3.07782 90.2446 -3.10061C88.9607 -3.12951 87.5381 -2.56044 86.6492 -1.24606C85.9565 -0.22197 85.9077 0.801142 85.9077 1.21871H94.1111C94.1111 1.48492 94.0882 2.39768 93.4443 3.34976C92.604 4.59214 91.253 5.12755 90.06 5.1007C89.1382 5.07995 88.504 4.74139 88.3145 4.6354C88.0595 4.49287 87.9019 4.36058 87.8518 4.31738C87.7137 4.19839 87.8724 4.31631 88.1859 4.82183C88.7954 5.80478 89.2323 7.02112 89.2323 7.90386H97.4357ZM85.9077 1.21871C85.9077 1.92396 86.067 6.3726 86.218 10.4699C86.2949 12.5574 86.3718 14.6067 86.4295 16.134C86.4583 16.8977 86.4824 17.531 86.4992 17.9734C86.5076 18.1946 86.5142 18.3681 86.5187 18.4863C86.521 18.5454 86.5227 18.5907 86.5239 18.6212C86.5245 18.6365 86.5249 18.6481 86.5252 18.6558C86.5253 18.6597 86.5255 18.6626 86.5255 18.6646C86.5256 18.6656 86.5256 18.6663 86.5256 18.6668C86.5256 18.6671 86.5256 18.6673 86.5256 18.6674C86.5256 18.6675 86.5256 18.6676 90.6243 18.5108C94.723 18.3541 94.723 18.3541 94.723 18.3539C94.723 18.3538 94.723 18.3536 94.723 18.3534C94.723 18.3529 94.723 18.3522 94.7229 18.3512C94.7229 18.3493 94.7227 18.3464 94.7226 18.3425C94.7223 18.3348 94.7219 18.3233 94.7213 18.3081C94.7201 18.2777 94.7184 18.2326 94.7161 18.1736C94.7116 18.0557 94.705 17.8825 94.6966 17.6616C94.6798 17.2198 94.6558 16.5873 94.627 15.8244C94.5694 14.2986 94.4926 12.252 94.4158 10.1678C94.339 8.083 94.2622 5.96334 94.2048 4.29059C94.176 3.45372 94.1522 2.73266 94.1356 2.1853C94.1273 1.91127 94.121 1.68528 94.1168 1.51224C94.1147 1.4257 94.1132 1.35607 94.1122 1.30248C94.1117 1.27584 94.1114 1.25516 94.1113 1.23973C94.1111 1.22358 94.1111 1.21739 94.1111 1.21871H85.9077ZM86.5296 18.2714L85.9147 28.7875L94.1041 29.2664L94.719 18.7503L86.5296 18.2714ZM85.9077 29.0269C85.9077 32.0094 88.3255 34.4272 91.308 34.4272V26.2238C92.8561 26.2238 94.1111 27.4788 94.1111 29.0269H85.9077ZM91.308 34.4272C94.2905 34.4272 96.7082 32.0094 96.7082 29.0269H88.5049C88.5049 27.4788 89.7599 26.2238 91.308 26.2238V34.4272ZM96.7061 28.8938L96.3627 18.3174L88.1636 18.5836L88.507 29.16L96.7061 28.8938ZM92.2631 18.4505C96.3132 19.099 96.3133 19.0988 96.3133 19.0985C96.3133 19.0984 96.3134 19.0982 96.3134 19.098C96.3135 19.0975 96.3136 19.097 96.3137 19.0963C96.3139 19.095 96.3141 19.0933 96.3145 19.0912C96.3152 19.087 96.3161 19.0812 96.3172 19.0738C96.3196 19.0591 96.3229 19.038 96.3272 19.011C96.3357 18.9569 96.3478 18.8788 96.3632 18.779C96.3939 18.5795 96.4373 18.2929 96.4891 17.9381C96.5926 17.2294 96.7307 16.2429 96.869 15.13C97.1384 12.9623 97.4357 10.1077 97.4357 7.90386H89.2323C89.2323 9.55881 88.9942 11.9776 88.7282 14.1184C88.5988 15.1598 88.4691 16.0865 88.3719 16.7523C88.3233 17.0847 88.283 17.3508 88.2551 17.5321C88.2412 17.6227 88.2304 17.6921 88.2232 17.7378C88.2196 17.7607 88.2169 17.7777 88.2152 17.7885C88.2143 17.7939 88.2137 17.7977 88.2134 17.8C88.2132 17.8011 88.2131 17.8018 88.213 17.8022C88.213 17.8023 88.213 17.8024 88.213 17.8024C88.213 17.8023 88.213 17.8022 88.213 17.8022C88.213 17.8021 88.213 17.8019 92.2631 18.4505Z" fill="#FCC436" mask="url(#path-3-inside-1_23_2582)"/>
<path d="M57.8184 1.69908C57.8184 1.69908 57.8908 4.39883 57.8908 6.96209C57.8908 8.88457 57.3069 10.0919 56.4748 10.5754L56.4933 29.027C56.4933 29.7442 55.9119 30.3255 55.1947 30.3255C54.4775 30.3255 53.8961 29.7442 53.8961 29.027L54.4226 10.5792C53.587 10.0982 53 8.88957 53 6.96209C53 4.39883 53.0724 1.69908 53.0724 1.69908" stroke="#FCC436" stroke-width="1.29858" stroke-miterlimit="10" stroke-linecap="round" stroke-linejoin="round"/>
<path d="M55.4454 1.6991V7.92247" stroke="#FCC436" stroke-width="1.29858" stroke-miterlimit="10" stroke-linecap="round" stroke-linejoin="round"/>
<path d="M73.7772 28.5581C80.9341 28.5581 86.7359 22.7563 86.7359 15.5994C86.7359 8.44251 80.9341 2.6407 73.7772 2.6407C66.6203 2.6407 60.8185 8.44251 60.8185 15.5994C60.8185 22.7563 66.6203 28.5581 73.7772 28.5581Z" stroke="#FCC436" stroke-width="2.46102" stroke-miterlimit="10" stroke-linecap="round" stroke-linejoin="round"/>
<path d="M73.7799 23.515C78.1366 23.515 81.6684 19.9832 81.6684 15.6265C81.6684 11.2697 78.1366 7.73792 73.7799 7.73792C69.4232 7.73792 65.8914 11.2697 65.8914 15.6265C65.8914 19.9832 69.4232 23.515 73.7799 23.515Z" fill="#FCC436"/>
<path d="M53 7.56271H57.922L57.1017 10.8441L56.725 28.926C56.7064 29.8185 55.9776 30.5322 55.085 30.5322C54.1657 30.5322 53.4259 29.7768 53.4451 28.8577L53.8203 10.8441L53 7.56271Z" fill="#FCC436"/>
</svg>
