<svg width="67" height="86" viewBox="0 0 67 86" fill="none" xmlns="http://www.w3.org/2000/svg">
<path d="M53.3339 25.9039C53.3339 22.0451 50.0093 18.0079 50.0093 19.2187C50.0093 20.4296 50.6242 36.5108 50.6242 36.5108L50.0093 47.0269C50.0093 47.7441 50.5907 48.3255 51.3079 48.3255C52.0251 48.3255 52.6064 47.7441 52.6064 47.0269L52.263 36.4505C52.263 36.4505 53.3339 29.7627 53.3339 25.9039Z" stroke="#FCC436" stroke-width="0.820339" stroke-miterlimit="10"/>
<mask id="path-2-inside-1_23_3295" fill="white">
<path d="M53.3339 25.9039C53.3339 22.0451 50.0093 18.0079 50.0093 19.2187C50.0093 20.4296 50.6242 36.5108 50.6242 36.5108L50.0093 47.0269C50.0093 47.7441 50.5907 48.3255 51.3079 48.3255C52.0251 48.3255 52.6064 47.7441 52.6064 47.0269L52.263 36.4505C52.263 36.4505 53.3339 29.7627 53.3339 25.9039Z"/>
</mask>
<path d="M50.6242 36.5108L54.7189 36.7503L54.7305 36.5523L54.7229 36.3541L50.6242 36.5108ZM50.0093 47.0269L45.9146 46.7875L45.9076 46.9071V47.0269H50.0093ZM52.6064 47.0269H56.7081V46.9604L56.706 46.8938L52.6064 47.0269ZM52.263 36.4505L48.2129 35.8019L48.1507 36.1904L48.1635 36.5836L52.263 36.4505ZM57.4356 25.9039C57.4356 22.9278 56.2102 20.1961 55.1574 18.4985C54.6398 17.6637 53.9673 16.7582 53.2058 16.1022C52.9998 15.9248 52.6994 15.6886 52.3179 15.4753C52.0017 15.2985 51.2571 14.9222 50.2444 14.8994C48.9605 14.8705 47.538 15.4396 46.649 16.7539C45.9564 17.778 45.9076 18.8011 45.9076 19.2187H54.111C54.111 19.4849 54.0881 20.3977 53.4442 21.3498C52.6039 22.5921 51.2528 23.1276 50.0598 23.1007C49.1381 23.0799 48.5039 22.7414 48.3143 22.6354C48.0594 22.4929 47.9018 22.3606 47.8517 22.3174C47.7135 22.1984 47.8723 22.3163 48.1857 22.8218C48.7953 23.8048 49.2322 25.0211 49.2322 25.9039H57.4356ZM45.9076 19.2187C45.9076 19.924 46.0668 24.3726 46.2178 28.4699C46.2948 30.5574 46.3717 32.6067 46.4294 34.134C46.4582 34.8977 46.4822 35.531 46.4991 35.9734C46.5075 36.1946 46.5141 36.3681 46.5186 36.4863C46.5209 36.5454 46.5226 36.5907 46.5238 36.6212C46.5243 36.6365 46.5248 36.6481 46.5251 36.6558C46.5252 36.6597 46.5253 36.6626 46.5254 36.6646C46.5254 36.6656 46.5255 36.6663 46.5255 36.6668C46.5255 36.6671 46.5255 36.6673 46.5255 36.6674C46.5255 36.6675 46.5255 36.6676 50.6242 36.5108C54.7229 36.3541 54.7229 36.3541 54.7229 36.3539C54.7229 36.3538 54.7229 36.3536 54.7229 36.3534C54.7229 36.3529 54.7228 36.3522 54.7228 36.3512C54.7227 36.3493 54.7226 36.3464 54.7225 36.3425C54.7222 36.3348 54.7217 36.3233 54.7212 36.3081C54.72 36.2777 54.7183 36.2326 54.716 36.1736C54.7115 36.0557 54.7049 35.8825 54.6965 35.6616C54.6797 35.2198 54.6557 34.5873 54.6269 33.8244C54.5693 32.2986 54.4925 30.252 54.4157 28.1678C54.3388 26.083 54.2621 23.9633 54.2046 22.2906C54.1759 21.4537 54.1521 20.7327 54.1355 20.1853C54.1272 19.9113 54.1209 19.6853 54.1167 19.5122C54.1145 19.4257 54.113 19.3561 54.1121 19.3025C54.1116 19.2758 54.1113 19.2552 54.1112 19.2397C54.111 19.2236 54.111 19.2174 54.111 19.2187H45.9076ZM46.5295 36.2714L45.9146 46.7875L54.104 47.2664L54.7189 36.7503L46.5295 36.2714ZM45.9076 47.0269C45.9076 50.0094 48.3253 52.4272 51.3079 52.4272V44.2238C52.856 44.2238 54.111 45.4788 54.111 47.0269H45.9076ZM51.3079 52.4272C54.2904 52.4272 56.7081 50.0094 56.7081 47.0269H48.5047C48.5047 45.4788 49.7598 44.2238 51.3079 44.2238V52.4272ZM56.706 46.8938L56.3626 36.3174L48.1635 36.5836L48.5069 47.16L56.706 46.8938ZM52.263 36.4505C56.3131 37.099 56.3132 37.0988 56.3132 37.0985C56.3132 37.0984 56.3133 37.0982 56.3133 37.098C56.3134 37.0975 56.3134 37.097 56.3135 37.0963C56.3138 37.095 56.314 37.0933 56.3144 37.0912C56.315 37.087 56.316 37.0812 56.3171 37.0738C56.3195 37.0591 56.3228 37.038 56.327 37.011C56.3355 36.9569 56.3477 36.8788 56.3631 36.779C56.3938 36.5795 56.4371 36.2929 56.489 35.9381C56.5925 35.2294 56.7305 34.2429 56.8688 33.13C57.1382 30.9623 57.4356 28.1077 57.4356 25.9039H49.2322C49.2322 27.5588 48.9941 29.9776 48.7281 32.1184C48.5987 33.1598 48.469 34.0865 48.3717 34.7523C48.3232 35.0847 48.2829 35.3508 48.255 35.5321C48.2411 35.6227 48.2302 35.6921 48.2231 35.7378C48.2195 35.7607 48.2168 35.7777 48.2151 35.7885C48.2142 35.7939 48.2136 35.7977 48.2132 35.8C48.2131 35.8011 48.2129 35.8018 48.2129 35.8022C48.2129 35.8023 48.2129 35.8024 48.2129 35.8024C48.2129 35.8023 48.2129 35.8022 48.2129 35.8022C48.2129 35.8021 48.2129 35.8019 52.263 36.4505Z" fill="#FCC436" mask="url(#path-2-inside-1_23_3295)"/>
<path d="M17.8184 19.6991C17.8184 19.6991 17.8908 22.3988 17.8908 24.9621C17.8908 26.8846 17.3069 28.0918 16.4748 28.5754L16.4933 47.0269C16.4933 47.7441 15.9119 48.3255 15.1947 48.3255C14.4775 48.3255 13.8961 47.7441 13.8961 47.0269L14.4226 28.5792C13.587 28.0982 13 26.8896 13 24.9621C13 22.3988 13.0724 19.6991 13.0724 19.6991" stroke="#FCC436" stroke-width="1.29858" stroke-miterlimit="10" stroke-linecap="round" stroke-linejoin="round"/>
<path d="M15.4453 19.6991V25.9224" stroke="#FCC436" stroke-width="1.29858" stroke-miterlimit="10" stroke-linecap="round" stroke-linejoin="round"/>
<path d="M33.7771 46.5581C40.934 46.5581 46.7358 40.7563 46.7358 33.5994C46.7358 26.4425 40.934 20.6407 33.7771 20.6407C26.6202 20.6407 20.8184 26.4425 20.8184 33.5994C20.8184 40.7563 26.6202 46.5581 33.7771 46.5581Z" stroke="#FCC436" stroke-width="2.46102" stroke-miterlimit="10" stroke-linecap="round" stroke-linejoin="round"/>
<path d="M33.7799 41.515C38.1366 41.515 41.6684 37.9832 41.6684 33.6265C41.6684 29.2697 38.1366 25.7379 33.7799 25.7379C29.4232 25.7379 25.8914 29.2697 25.8914 33.6265C25.8914 37.9832 29.4232 41.515 33.7799 41.515Z" fill="#FCC436"/>
<path d="M13 25.5627H17.922L17.1017 28.8441L16.725 46.926C16.7064 47.8185 15.9776 48.5322 15.085 48.5322V48.5322C14.1657 48.5322 13.4259 47.7768 13.4451 46.8577L13.8203 28.8441L13 25.5627Z" fill="#FCC436"/>
<path d="M23.9003 77.853L24.1523 77.5425V80.6565L23.9633 80.472H26.6408V80.9625H23.9633L24.1523 80.7735V84H23.5943V77.3625H27.0413V77.853H23.9003ZM30.0105 84.081C29.5425 84.081 29.1285 83.9745 28.7685 83.7615C28.4085 83.5455 28.1265 83.25 27.9225 82.875C27.7185 82.5 27.6165 82.077 27.6165 81.606C27.6165 81.132 27.7185 80.7105 27.9225 80.3415C28.1265 79.9725 28.4085 79.683 28.7685 79.473C29.1285 79.263 29.5425 79.158 30.0105 79.158C30.4785 79.158 30.8925 79.263 31.2525 79.473C31.6125 79.683 31.8945 79.9725 32.0985 80.3415C32.3025 80.7105 32.4045 81.132 32.4045 81.606C32.4045 82.077 32.3025 82.5 32.0985 82.875C31.8945 83.25 31.6125 83.5455 31.2525 83.7615C30.8925 83.9745 30.4785 84.081 30.0105 84.081ZM30.0105 83.5725C30.3705 83.5725 30.687 83.4885 30.96 83.3205C31.236 83.1525 31.452 82.92 31.608 82.623C31.764 82.326 31.842 81.987 31.842 81.606C31.842 81.222 31.764 80.8845 31.608 80.5935C31.452 80.3025 31.236 80.076 30.96 79.914C30.687 79.749 30.3705 79.6665 30.0105 79.6665C29.6535 79.6665 29.337 79.749 29.061 79.914C28.785 80.076 28.569 80.3025 28.413 80.5935C28.257 80.8845 28.179 81.222 28.179 81.606C28.179 81.987 28.257 82.326 28.413 82.623C28.569 82.92 28.785 83.1525 29.061 83.3205C29.337 83.4885 29.6535 83.5725 30.0105 83.5725ZM35.8992 84.081C35.4312 84.081 35.0172 83.9745 34.6572 83.7615C34.2972 83.5455 34.0152 83.25 33.8112 82.875C33.6072 82.5 33.5052 82.077 33.5052 81.606C33.5052 81.132 33.6072 80.7105 33.8112 80.3415C34.0152 79.9725 34.2972 79.683 34.6572 79.473C35.0172 79.263 35.4312 79.158 35.8992 79.158C36.3672 79.158 36.7812 79.263 37.1412 79.473C37.5012 79.683 37.7832 79.9725 37.9872 80.3415C38.1912 80.7105 38.2932 81.132 38.2932 81.606C38.2932 82.077 38.1912 82.5 37.9872 82.875C37.7832 83.25 37.5012 83.5455 37.1412 83.7615C36.7812 83.9745 36.3672 84.081 35.8992 84.081ZM35.8992 83.5725C36.2592 83.5725 36.5757 83.4885 36.8487 83.3205C37.1247 83.1525 37.3407 82.92 37.4967 82.623C37.6527 82.326 37.7307 81.987 37.7307 81.606C37.7307 81.222 37.6527 80.8845 37.4967 80.5935C37.3407 80.3025 37.1247 80.076 36.8487 79.914C36.5757 79.749 36.2592 79.6665 35.8992 79.6665C35.5422 79.6665 35.2257 79.749 34.9497 79.914C34.6737 80.076 34.4577 80.3025 34.3017 80.5935C34.1457 80.8845 34.0677 81.222 34.0677 81.606C34.0677 81.987 34.1457 82.326 34.3017 82.623C34.4577 82.92 34.6737 83.1525 34.9497 83.3205C35.2257 83.4885 35.5422 83.5725 35.8992 83.5725ZM41.4818 84.0855C41.0918 84.0855 40.7378 83.991 40.4198 83.802C40.1048 83.61 39.8543 83.3295 39.6683 82.9605C39.4853 82.5915 39.3938 82.1415 39.3938 81.6105C39.3938 81.0855 39.4868 80.64 39.6728 80.274C39.8618 79.908 40.1138 79.6305 40.4288 79.4415C40.7438 79.2495 41.0948 79.1535 41.4818 79.1535C41.8478 79.1535 42.1868 79.2405 42.4988 79.4145C42.8138 79.5855 43.0658 79.821 43.2548 80.121C43.4438 80.421 43.5383 80.76 43.5383 81.138C43.5383 81.15 43.5383 81.162 43.5383 81.174C43.5383 81.183 43.5383 81.192 43.5383 81.201L43.1288 81.21C43.1288 81.201 43.1288 81.192 43.1288 81.183C43.1288 81.171 43.1288 81.1605 43.1288 81.1515C43.1288 80.8785 43.0553 80.6295 42.9083 80.4045C42.7613 80.1795 42.5678 79.9995 42.3278 79.8645C42.0908 79.7295 41.8328 79.662 41.5538 79.662C41.0918 79.662 40.7108 79.8255 40.4108 80.1525C40.1138 80.4795 39.9653 80.9655 39.9653 81.6105C39.9653 82.2525 40.1138 82.7385 40.4108 83.0685C40.7108 83.3955 41.0918 83.559 41.5538 83.559C41.8388 83.559 42.0998 83.4915 42.3368 83.3565C42.5768 83.2185 42.7688 83.034 42.9128 82.803C43.0568 82.572 43.1288 82.314 43.1288 82.029L43.5383 82.038C43.5383 82.425 43.4453 82.773 43.2593 83.082C43.0733 83.391 42.8243 83.6355 42.5123 83.8155C42.2033 83.9955 41.8598 84.0855 41.4818 84.0855ZM43.1288 84V76.9665H43.6868V84H43.1288Z" fill="#797D86"/>
<rect x="1.61467" y="1.61464" width="64.051" height="64.051" rx="32.0255" stroke="#FCC436" stroke-width="2.66879"/>
</svg>
