<svg width="21" height="20" viewBox="0 0 21 20" fill="none" xmlns="http://www.w3.org/2000/svg">
<path fill-rule="evenodd" clip-rule="evenodd" d="M20.0039 3.99724C20.0034 3.4366 19.8851 2.88232 19.6566 2.37035C19.4281 1.85838 19.0946 1.40015 18.6776 1.02536C18.2607 0.650573 17.7696 0.367602 17.2363 0.194795C16.7029 0.0219883 16.1392 -0.0367959 15.5817 0.022254C15.0242 0.0813038 14.4853 0.25687 14 0.537567C13.5147 0.818265 13.0938 1.19783 12.7646 1.65164C12.4354 2.10546 12.2052 2.62339 12.0891 3.17187C11.9729 3.72034 11.9733 4.2871 12.0903 4.83541L7.01823 7.37093C6.49634 6.77152 5.80775 6.34112 5.04027 6.13463C4.27278 5.92815 3.46119 5.95492 2.70899 6.21155C1.95678 6.46818 1.29806 6.94303 0.816815 7.57554C0.335571 8.20805 0.0536196 8.96957 0.0069155 9.76297C-0.0397886 10.5564 0.150871 11.3457 0.554582 12.0303C0.958292 12.7149 1.55676 13.2638 2.27366 13.6069C2.99056 13.95 3.7934 14.0718 4.57981 13.9568C5.36622 13.8418 6.10055 13.4951 6.68916 12.9611L12.0203 15.6266C11.9296 16.5956 12.1953 17.5643 12.7675 18.3515C13.3397 19.1387 14.1792 19.6904 15.1288 19.9032C16.0784 20.116 17.0731 19.9754 17.9265 19.5077C18.7799 19.04 19.4336 18.2772 19.7652 17.3623C20.0967 16.4473 20.0834 15.4429 19.7278 14.537C19.3721 13.6312 18.6985 12.886 17.833 12.441C16.9675 11.9961 15.9695 11.8818 15.0258 12.1197C14.0822 12.3575 13.2576 12.9312 12.7064 13.7332L7.79339 11.2767C8.02317 10.5949 8.06463 9.86372 7.91342 9.1603L12.9855 6.62478C13.5205 7.23942 14.2305 7.67602 15.0205 7.87617C15.8104 8.07631 16.6426 8.03046 17.4058 7.74474C18.169 7.45903 18.8267 6.94707 19.291 6.27737C19.7553 5.60766 20.004 4.81215 20.0039 3.99724Z" fill="#FCC436"/>
</svg>
